<svg id="Layer_1" data-name="Layer 1" xmlns="http://www.w3.org/2000/svg" xmlns:xlink="http://www.w3.org/1999/xlink" viewBox="0 0 1924.36 1080"><defs><style>.cls-1{fill:url(#linear-gradient);}.cls-2{fill:#e8d12e;}.cls-3{fill:aqua;opacity:0.53;}.cls-4{fill:#00b5e1;}</style><linearGradient id="linear-gradient" y1="540" x2="1920" y2="540" gradientUnits="userSpaceOnUse"><stop offset="0" stop-color="#049bd3"/><stop offset="0.72" stop-color="#1da6dd"/><stop offset="1" stop-color="#29abe2"/></linearGradient></defs><path class="cls-1" d="M0,0H683c93.5,185.5,327.5,335.5,650.5,254.5s586.5,304,586.5,304V1080H0Z" transform="translate(0.5)"/><polygon class="cls-2" points="404.5 776.68 409.88 787.59 421.92 789.34 413.21 797.83 415.27 809.82 404.5 804.16 393.73 809.82 395.79 797.83 387.08 789.34 399.12 787.59 404.5 776.68"/><polygon class="cls-2" points="387.5 176.68 392.88 187.59 404.92 189.34 396.21 197.83 398.27 209.82 387.5 204.16 376.73 209.82 378.79 197.83 370.08 189.34 382.12 187.59 387.5 176.68"/><polygon class="cls-2" points="39.5 263.68 44.88 274.59 56.92 276.34 48.21 284.83 50.27 296.82 39.5 291.16 28.73 296.82 30.79 284.83 22.08 276.34 34.12 274.59 39.5 263.68"/><path class="cls-3" d="M1920.6,568.64a24.28,24.28,0,0,1,.32-5.13q.07-7,.38-13.9a31.81,31.81,0,0,1-.7-5.37,24.69,24.69,0,0,1,.68-7,32.62,32.62,0,0,1-.68-5.26,25.17,25.17,0,0,1,1.34-9.21,32.57,32.57,0,0,1-1.34-7.87,25.67,25.67,0,0,1,2.34-11.77l0-4.29a32.4,32.4,0,0,1-2.36-10.79,25,25,0,0,1,.73-7.2q-.25-7.78-.29-15.59a33.83,33.83,0,0,1-.44-4.06,24.5,24.5,0,0,1,.46-5.95c0-6.59.2-13.18.37-19.77a33,33,0,0,1-.83-6,24,24,0,0,1,.24-4.66q-.18-1.32-.24-2.67a24.67,24.67,0,0,1,.43-5.78,32.73,32.73,0,0,1-.43-4,25.11,25.11,0,0,1,1.34-9.21,32.17,32.17,0,0,1-1.34-7.87c0-.77,0-1.52,0-2.27,0-.06,0-.12,0-.17,0-.7,0-1.39,0-2.08-.2-1.28-.4-2.56-.61-3.84-.76-1.51-9.49-1.31-18-1.12a44,44,0,0,1-8,.12c2.45,0,5.2-.06,8-.12,6.5-.64,12.66-2.32,19.21-2.83a31.37,31.37,0,0,1-.58-4.78,24.59,24.59,0,0,1,.09-3.44,32.52,32.52,0,0,1-2.53-11.2,25,25,0,0,1,1-8,32.06,32.06,0,0,1-1-6.61,26.38,26.38,0,0,1,5.15-16.57c-.13-1-.22-2-.27-3a25.1,25.1,0,0,1,.62-6.68v-1.53a24.61,24.61,0,0,1-.65-10.09,24.55,24.55,0,0,1,.46-4.55,31.17,31.17,0,0,1-.44-4,25,25,0,0,1,.34-5.28l-.79-30.17L1920,168l-58.85-3.69a135.92,135.92,0,0,0-122,62.06l-52.65,81.7a135.92,135.92,0,0,0-6.1,136.78l48,91.52a135.89,135.89,0,0,0,112.54,72.53l81.57,4.69,0-5.93q-1.48-17.94-1.63-35.89C1920.75,570.74,1920.65,569.7,1920.6,568.64Z" transform="translate(0.5)"/><path class="cls-3" d="M1923.05,476.1v-.05c0-.05,0-.1,0-.15,0-.82,0-1.62,0-2.42v-1.17a32.4,32.4,0,0,1-2-7q0,7.8.29,15.59A27.18,27.18,0,0,1,1923.05,476.1Z" transform="translate(0.5)"/><path class="cls-3" d="M1923.15,440.78a32.25,32.25,0,0,1-1.72-5.25c-.17,6.59-.32,13.18-.37,19.77a26.67,26.67,0,0,1,2.1-6.28v-3.11c-.06-.58-.1-1.16-.13-1.74A23.82,23.82,0,0,1,1923.15,440.78Z" transform="translate(0.5)"/><path class="cls-3" d="M1922.73,557.34v-2.86a32.12,32.12,0,0,1-1.44-4.87q-.32,6.95-.38,13.9A26.08,26.08,0,0,1,1922.73,557.34Z" transform="translate(0.5)"/><path class="cls-3" d="M1920.9,571.77q.12,18,1.63,35.89l.12-29A31.71,31.71,0,0,1,1920.9,571.77Z" transform="translate(0.5)"/><path class="cls-3" d="M1902,385.88c-2.77.06-5.52.12-8,.12A44,44,0,0,0,1902,385.88Z" transform="translate(0.5)"/><path class="cls-3" d="M1921.18,383.05c-6.55.51-12.71,2.19-19.21,2.83,8.54-.19,17.27-.39,18,1.12.21,1.28.41,2.56.61,3.84a25.65,25.65,0,0,1,1-6C1921.43,384.25,1921.29,383.65,1921.18,383.05Z" transform="translate(0.5)"/><path class="cls-3" d="M1922.53,607.66l0,5.93a4.3,4.3,0,0,1,.89-.59h-.4C1922.83,611.22,1922.68,609.44,1922.53,607.66Z" transform="translate(0.5)"/><path class="cls-3" d="M1923,607.69c0-.43,0-.87,0-1.3l-.48-.84v2.11c.15,1.78.3,3.56.47,5.34h.4a2.68,2.68,0,0,1,.3-.12A32.88,32.88,0,0,1,1923,607.69Z" transform="translate(0.5)"/><path class="cls-3" d="M1923,498.89l0,4.29c.29-.62.59-1.22.92-1.82-.06-.27-.11-.54-.17-.8C1923.43,500,1923.19,499.46,1923,498.89Z" transform="translate(0.5)"/><path class="cls-3" d="M1923.51,448.31c-.14-.79-.26-1.59-.34-2.4V449Z" transform="translate(0.5)"/><path class="cls-3" d="M1920.88,571.69q.12,16.75,1.46,33.51a4,4,0,0,0,.2.35l.11-26.9A32.45,32.45,0,0,1,1920.88,571.69Z" transform="translate(0.5)"/><path class="cls-3" d="M1920.69,570v18.22c-3.4.21-6.59,3.68-4.19,7.33,2,3.15,4,6.38,5.84,9.63q-1.32-16.76-1.46-33.51C1920.81,571.14,1920.74,570.58,1920.69,570Z" transform="translate(0.5)"/><path class="cls-4" d="M-.5,386A143.5,143.5,0,0,1,143,529.5,143.5,143.5,0,0,1-.5,673" transform="translate(0.5)"/><path class="cls-4" d="M-144,529.5" transform="translate(0.5)"/></svg>